<svg width="22" height="22" viewBox="0 0 22 22" fill="none" xmlns="http://www.w3.org/2000/svg">
<path d="M18.5 1H3.5C2.11929 1 1 1.89543 1 3V19C1 20.1046 2.11929 21 3.5 21H18.5C19.8807 21 21 20.1046 21 19V3C21 1.89543 19.8807 1 18.5 1Z" stroke="#5A7099" stroke-width="2" stroke-linecap="round" stroke-linejoin="round"/>
<path d="M7.25 21V17H14.75V21" stroke="#5A7099" stroke-width="2" stroke-linecap="round" stroke-linejoin="round"/>
<path d="M6 5H6.0125" stroke="#5A7099" stroke-width="2" stroke-linecap="round" stroke-linejoin="round"/>
<path d="M16 5H16.0125" stroke="#5A7099" stroke-width="2" stroke-linecap="round" stroke-linejoin="round"/>
<path d="M11 5H11.0125" stroke="#5A7099" stroke-width="2" stroke-linecap="round" stroke-linejoin="round"/>
<path d="M11 9H11.0125" stroke="#5A7099" stroke-width="2" stroke-linecap="round" stroke-linejoin="round"/>
<path d="M11 13H11.0125" stroke="#5A7099" stroke-width="2" stroke-linecap="round" stroke-linejoin="round"/>
<path d="M16 9H16.0125" stroke="#5A7099" stroke-width="2" stroke-linecap="round" stroke-linejoin="round"/>
<path d="M16 13H16.0125" stroke="#5A7099" stroke-width="2" stroke-linecap="round" stroke-linejoin="round"/>
<path d="M6 9H6.0125" stroke="#5A7099" stroke-width="2" stroke-linecap="round" stroke-linejoin="round"/>
<path d="M6 13H6.0125" stroke="#5A7099" stroke-width="2" stroke-linecap="round" stroke-linejoin="round"/>
</svg>
