<svg width="23" height="23" viewBox="0 0 23 23" fill="none" xmlns="http://www.w3.org/2000/svg">
<path d="M9.04517 12.0731C9.47706 12.6511 10.0281 13.1293 10.6608 13.4754C11.2936 13.8214 11.9933 14.0272 12.7125 14.0788C13.4317 14.1303 14.1536 14.0265 14.8292 13.7742C15.5047 13.5219 16.1182 13.1272 16.628 12.6167L19.645 9.59667C20.561 8.64735 21.0678 7.37589 21.0563 6.05614C21.0449 4.73639 20.516 3.47394 19.5837 2.5407C18.6514 1.60746 17.3903 1.0781 16.0718 1.06663C14.7534 1.05516 13.4832 1.5625 12.5349 2.47938L10.8051 4.20082" stroke="white" stroke-width="2" stroke-linecap="round" stroke-linejoin="round"/>
<path d="M13.0677 10.0597C12.6359 9.48175 12.0848 9.00352 11.4521 8.65746C10.8193 8.3114 10.1196 8.10562 9.4004 8.05406C8.6812 8.0025 7.95933 8.10637 7.28376 8.35863C6.60819 8.6109 5.99471 9.00564 5.48495 9.51611L2.46792 12.5362C1.55196 13.4855 1.04513 14.7569 1.05659 16.0767C1.06804 17.3965 1.59687 18.6589 2.52918 19.5921C3.46148 20.5254 4.72266 21.0547 6.04108 21.0662C7.35951 21.0777 8.62969 20.5703 9.57805 19.6535L11.2978 17.932" stroke="white" stroke-width="2" stroke-linecap="round" stroke-linejoin="round"/>
</svg>
