<svg width="22" height="26" viewBox="0 0 22 26" fill="none" xmlns="http://www.w3.org/2000/svg">
<path d="M21 10.6C21 17.8 11 25 11 25C11 25 1 17.8 1 10.6C1 8.05392 2.05357 5.61212 3.92893 3.81178C5.8043 2.01143 8.34784 1 11 1C13.6522 1 16.1957 2.01143 18.0711 3.81178C19.9464 5.61212 21 8.05392 21 10.6V10.6Z" stroke="white" stroke-width="2" stroke-linecap="round" stroke-linejoin="round"/>
<path d="M11 14.2C13.0711 14.2 14.75 12.5882 14.75 10.6C14.75 8.61178 13.0711 7 11 7C8.92893 7 7.25 8.61178 7.25 10.6C7.25 12.5882 8.92893 14.2 11 14.2Z" stroke="white" stroke-width="2" stroke-linecap="round" stroke-linejoin="round"/>
</svg>
