<svg width="22" height="21" viewBox="0 0 22 21" fill="none" xmlns="http://www.w3.org/2000/svg">
<path d="M21 2.00001C21 2.00001 20.3 4.10001 19 5.40001C20.6 15.4 9.6 22.7 1 17C3.2 17.1 5.4 16.4 7 15C2 13.5 -0.5 7.60001 2 3.00001C4.2 5.60001 7.6 7.10001 11 7.00001C10.1 2.80001 15 0.400007 18 3.20001C19.1 3.20001 21 2.00001 21 2.00001Z" fill="#5A7099" stroke="#5A7099" stroke-width="2" stroke-linecap="round" stroke-linejoin="round"/>
<path d="M1 6H19V12C19 13.1046 18.1046 14 17 14H6C3.23858 14 1 11.7614 1 9V6Z" fill="#5A7099"/>
<rect x="1" y="4" width="3" height="2" fill="#5A7099"/>
<rect x="11" y="3" width="8" height="5" fill="#5A7099"/>
<rect x="4" y="16" width="10" height="2" fill="#5A7099"/>
<rect x="7" y="14" width="9" height="2" fill="#5A7099"/>
</svg>
